%TF.GenerationSoftware,KiCad,Pcbnew,8.0.4+1*%
%TF.CreationDate,2024-09-15T14:39:29+02:00*%
%TF.ProjectId,meowcontrol,6d656f77-636f-46e7-9472-6f6c2e6b6963,rev?*%
%TF.SameCoordinates,Original*%
%TF.FileFunction,Soldermask,Top*%
%TF.FilePolarity,Negative*%
%FSLAX46Y46*%
G04 Gerber Fmt 4.6, Leading zero omitted, Abs format (unit mm)*
G04 Created by KiCad (PCBNEW 8.0.4+1) date 2024-09-15 14:39:29*
%MOMM*%
%LPD*%
G01*
G04 APERTURE LIST*
G04 Aperture macros list*
%AMRoundRect*
0 Rectangle with rounded corners*
0 $1 Rounding radius*
0 $2 $3 $4 $5 $6 $7 $8 $9 X,Y pos of 4 corners*
0 Add a 4 corners polygon primitive as box body*
4,1,4,$2,$3,$4,$5,$6,$7,$8,$9,$2,$3,0*
0 Add four circle primitives for the rounded corners*
1,1,$1+$1,$2,$3*
1,1,$1+$1,$4,$5*
1,1,$1+$1,$6,$7*
1,1,$1+$1,$8,$9*
0 Add four rect primitives between the rounded corners*
20,1,$1+$1,$2,$3,$4,$5,0*
20,1,$1+$1,$4,$5,$6,$7,0*
20,1,$1+$1,$6,$7,$8,$9,0*
20,1,$1+$1,$8,$9,$2,$3,0*%
G04 Aperture macros list end*
%ADD10RoundRect,0.250000X-0.400000X-0.625000X0.400000X-0.625000X0.400000X0.625000X-0.400000X0.625000X0*%
%ADD11C,2.000000*%
%ADD12RoundRect,0.250001X-0.624999X0.462499X-0.624999X-0.462499X0.624999X-0.462499X0.624999X0.462499X0*%
%ADD13RoundRect,0.250000X0.650000X-0.412500X0.650000X0.412500X-0.650000X0.412500X-0.650000X-0.412500X0*%
%ADD14RoundRect,0.375000X0.375000X-0.625000X0.375000X0.625000X-0.375000X0.625000X-0.375000X-0.625000X0*%
%ADD15RoundRect,0.500000X1.400000X-0.500000X1.400000X0.500000X-1.400000X0.500000X-1.400000X-0.500000X0*%
%ADD16RoundRect,0.150000X0.150000X-0.725000X0.150000X0.725000X-0.150000X0.725000X-0.150000X-0.725000X0*%
%ADD17RoundRect,0.125000X-0.353553X-0.530330X0.530330X0.353553X0.353553X0.530330X-0.530330X-0.353553X0*%
%ADD18RoundRect,0.125000X0.353553X-0.530330X0.530330X-0.353553X-0.353553X0.530330X-0.530330X0.353553X0*%
%ADD19RoundRect,0.250000X0.625000X-0.400000X0.625000X0.400000X-0.625000X0.400000X-0.625000X-0.400000X0*%
%ADD20RoundRect,0.250000X-0.625000X0.400000X-0.625000X-0.400000X0.625000X-0.400000X0.625000X0.400000X0*%
%ADD21C,0.650000*%
%ADD22RoundRect,0.150000X0.150000X0.425000X-0.150000X0.425000X-0.150000X-0.425000X0.150000X-0.425000X0*%
%ADD23RoundRect,0.075000X0.075000X0.500000X-0.075000X0.500000X-0.075000X-0.500000X0.075000X-0.500000X0*%
%ADD24O,1.000000X2.100000*%
%ADD25O,1.000000X1.800000*%
%ADD26RoundRect,0.250000X-0.650000X0.412500X-0.650000X-0.412500X0.650000X-0.412500X0.650000X0.412500X0*%
%ADD27RoundRect,0.250000X-0.412500X-0.650000X0.412500X-0.650000X0.412500X0.650000X-0.412500X0.650000X0*%
G04 APERTURE END LIST*
D10*
%TO.C,R4*%
X113670000Y-73600000D03*
X116770000Y-73600000D03*
%TD*%
D11*
%TO.C,SW1*%
X110380000Y-66980000D03*
X110380000Y-73480000D03*
X105880000Y-66980000D03*
X105880000Y-73480000D03*
%TD*%
D12*
%TO.C,D6*%
X132500000Y-101987500D03*
X132500000Y-99012500D03*
%TD*%
%TO.C,D5*%
X128400000Y-98012500D03*
X128400000Y-100987500D03*
%TD*%
%TO.C,D4*%
X124300000Y-97410000D03*
X124300000Y-100385000D03*
%TD*%
%TO.C,D3*%
X120200000Y-97410000D03*
X120200000Y-100385000D03*
%TD*%
%TO.C,D2*%
X116100000Y-98012500D03*
X116100000Y-100987500D03*
%TD*%
%TO.C,D1*%
X112000000Y-99012500D03*
X112000000Y-101987500D03*
%TD*%
D13*
%TO.C,C6*%
X122050000Y-80652500D03*
X122050000Y-77527500D03*
%TD*%
D14*
%TO.C,U4*%
X133597500Y-73720000D03*
X135897500Y-73720000D03*
D15*
X135897500Y-67420000D03*
D14*
X138197500Y-73720000D03*
%TD*%
D16*
%TO.C,U3*%
X133730000Y-90360000D03*
X135000000Y-90360000D03*
X136270000Y-90360000D03*
X137540000Y-90360000D03*
X137540000Y-85210000D03*
X136270000Y-85210000D03*
X135000000Y-85210000D03*
X133730000Y-85210000D03*
%TD*%
%TO.C,U2*%
X126605000Y-90360000D03*
X127875000Y-90360000D03*
X129145000Y-90360000D03*
X130415000Y-90360000D03*
X130415000Y-85210000D03*
X129145000Y-85210000D03*
X127875000Y-85210000D03*
X126605000Y-85210000D03*
%TD*%
D17*
%TO.C,U1*%
X108737930Y-82722272D03*
X109303616Y-83287957D03*
X109869301Y-83853643D03*
X110434986Y-84419328D03*
X111000672Y-84985014D03*
X111566357Y-85550699D03*
X112132043Y-86116384D03*
X112697728Y-86682070D03*
D18*
X114642272Y-86682070D03*
X115207957Y-86116384D03*
X115773643Y-85550699D03*
X116339328Y-84985014D03*
X116905014Y-84419328D03*
X117470699Y-83853643D03*
X118036384Y-83287957D03*
X118602070Y-82722272D03*
D17*
X118602070Y-80777728D03*
X118036384Y-80212043D03*
X117470699Y-79646357D03*
X116905014Y-79080672D03*
X116339328Y-78514986D03*
X115773643Y-77949301D03*
X115207957Y-77383616D03*
X114642272Y-76817930D03*
D18*
X112697728Y-76817930D03*
X112132043Y-77383616D03*
X111566357Y-77949301D03*
X111000672Y-78514986D03*
X110434986Y-79080672D03*
X109869301Y-79646357D03*
X109303616Y-80212043D03*
X108737930Y-80777728D03*
%TD*%
D19*
%TO.C,R3*%
X126130000Y-72070000D03*
X126130000Y-75170000D03*
%TD*%
D20*
%TO.C,R2*%
X114500000Y-68660000D03*
X114500000Y-65560000D03*
%TD*%
%TO.C,R1*%
X123060000Y-85420000D03*
X123060000Y-88520000D03*
%TD*%
D21*
%TO.C,J1*%
X125020000Y-68915000D03*
X119240000Y-68915000D03*
D22*
X125330000Y-69990000D03*
X124530000Y-69990000D03*
D23*
X123380000Y-69990000D03*
X122380000Y-69990000D03*
X121880000Y-69990000D03*
X120880000Y-69990000D03*
D22*
X119730000Y-69990000D03*
X118930000Y-69990000D03*
X118930000Y-69990000D03*
X119730000Y-69990000D03*
D23*
X120380000Y-69990000D03*
X121380000Y-69990000D03*
X122880000Y-69990000D03*
X123880000Y-69990000D03*
D22*
X124530000Y-69990000D03*
X125330000Y-69990000D03*
D24*
X126450000Y-69415000D03*
D25*
X126450000Y-65235000D03*
D24*
X117810000Y-69415000D03*
D25*
X117810000Y-65235000D03*
%TD*%
D26*
%TO.C,C5*%
X105700000Y-82447500D03*
X105700000Y-85572500D03*
%TD*%
D27*
%TO.C,C4*%
X126882500Y-81000000D03*
X130007500Y-81000000D03*
%TD*%
%TO.C,C3*%
X133937500Y-81000000D03*
X137062500Y-81000000D03*
%TD*%
D26*
%TO.C,C2*%
X130170000Y-72087500D03*
X130170000Y-75212500D03*
%TD*%
%TO.C,C1*%
X130180000Y-65587500D03*
X130180000Y-68712500D03*
%TD*%
M02*
