%TF.GenerationSoftware,KiCad,Pcbnew,8.0.4+1*%
%TF.CreationDate,2024-09-15T14:39:29+02:00*%
%TF.ProjectId,meowcontrol,6d656f77-636f-46e7-9472-6f6c2e6b6963,rev?*%
%TF.SameCoordinates,Original*%
%TF.FileFunction,Legend,Top*%
%TF.FilePolarity,Positive*%
%FSLAX46Y46*%
G04 Gerber Fmt 4.6, Leading zero omitted, Abs format (unit mm)*
G04 Created by KiCad (PCBNEW 8.0.4+1) date 2024-09-15 14:39:29*
%MOMM*%
%LPD*%
G01*
G04 APERTURE LIST*
G04 Aperture macros list*
%AMRoundRect*
0 Rectangle with rounded corners*
0 $1 Rounding radius*
0 $2 $3 $4 $5 $6 $7 $8 $9 X,Y pos of 4 corners*
0 Add a 4 corners polygon primitive as box body*
4,1,4,$2,$3,$4,$5,$6,$7,$8,$9,$2,$3,0*
0 Add four circle primitives for the rounded corners*
1,1,$1+$1,$2,$3*
1,1,$1+$1,$4,$5*
1,1,$1+$1,$6,$7*
1,1,$1+$1,$8,$9*
0 Add four rect primitives between the rounded corners*
20,1,$1+$1,$2,$3,$4,$5,0*
20,1,$1+$1,$4,$5,$6,$7,0*
20,1,$1+$1,$6,$7,$8,$9,0*
20,1,$1+$1,$8,$9,$2,$3,0*%
G04 Aperture macros list end*
%ADD10C,0.250000*%
%ADD11C,2.000000*%
%ADD12C,0.150000*%
%ADD13C,0.120000*%
%ADD14RoundRect,0.250000X-0.400000X-0.625000X0.400000X-0.625000X0.400000X0.625000X-0.400000X0.625000X0*%
%ADD15C,2.000000*%
%ADD16RoundRect,0.250001X-0.624999X0.462499X-0.624999X-0.462499X0.624999X-0.462499X0.624999X0.462499X0*%
%ADD17RoundRect,0.250000X0.650000X-0.412500X0.650000X0.412500X-0.650000X0.412500X-0.650000X-0.412500X0*%
%ADD18RoundRect,0.375000X0.375000X-0.625000X0.375000X0.625000X-0.375000X0.625000X-0.375000X-0.625000X0*%
%ADD19RoundRect,0.500000X1.400000X-0.500000X1.400000X0.500000X-1.400000X0.500000X-1.400000X-0.500000X0*%
%ADD20RoundRect,0.150000X0.150000X-0.725000X0.150000X0.725000X-0.150000X0.725000X-0.150000X-0.725000X0*%
%ADD21RoundRect,0.125000X-0.353553X-0.530330X0.530330X0.353553X0.353553X0.530330X-0.530330X-0.353553X0*%
%ADD22RoundRect,0.125000X0.353553X-0.530330X0.530330X-0.353553X-0.353553X0.530330X-0.530330X0.353553X0*%
%ADD23RoundRect,0.250000X0.625000X-0.400000X0.625000X0.400000X-0.625000X0.400000X-0.625000X-0.400000X0*%
%ADD24RoundRect,0.250000X-0.625000X0.400000X-0.625000X-0.400000X0.625000X-0.400000X0.625000X0.400000X0*%
%ADD25C,0.650000*%
%ADD26RoundRect,0.150000X0.150000X0.425000X-0.150000X0.425000X-0.150000X-0.425000X0.150000X-0.425000X0*%
%ADD27RoundRect,0.075000X0.075000X0.500000X-0.075000X0.500000X-0.075000X-0.500000X0.075000X-0.500000X0*%
%ADD28O,1.000000X2.100000*%
%ADD29O,1.000000X1.800000*%
%ADD30RoundRect,0.250000X-0.650000X0.412500X-0.650000X-0.412500X0.650000X-0.412500X0.650000X0.412500X0*%
%ADD31RoundRect,0.250000X-0.412500X-0.650000X0.412500X-0.650000X0.412500X0.650000X-0.412500X0.650000X0*%
G04 APERTURE END LIST*
D10*
X107627806Y-93598904D02*
X107627806Y-95217952D01*
X107627806Y-95217952D02*
X107532568Y-95408428D01*
X107532568Y-95408428D02*
X107437330Y-95503666D01*
X107437330Y-95503666D02*
X107246853Y-95598904D01*
X107246853Y-95598904D02*
X106961139Y-95598904D01*
X106961139Y-95598904D02*
X106770663Y-95503666D01*
X107627806Y-94837000D02*
X107437330Y-94932238D01*
X107437330Y-94932238D02*
X107056377Y-94932238D01*
X107056377Y-94932238D02*
X106865901Y-94837000D01*
X106865901Y-94837000D02*
X106770663Y-94741761D01*
X106770663Y-94741761D02*
X106675425Y-94551285D01*
X106675425Y-94551285D02*
X106675425Y-93979857D01*
X106675425Y-93979857D02*
X106770663Y-93789380D01*
X106770663Y-93789380D02*
X106865901Y-93694142D01*
X106865901Y-93694142D02*
X107056377Y-93598904D01*
X107056377Y-93598904D02*
X107437330Y-93598904D01*
X107437330Y-93598904D02*
X107627806Y-93694142D01*
X108580187Y-94932238D02*
X108580187Y-93598904D01*
X108580187Y-92932238D02*
X108484949Y-93027476D01*
X108484949Y-93027476D02*
X108580187Y-93122714D01*
X108580187Y-93122714D02*
X108675425Y-93027476D01*
X108675425Y-93027476D02*
X108580187Y-92932238D01*
X108580187Y-92932238D02*
X108580187Y-93122714D01*
X109246854Y-93598904D02*
X110008758Y-93598904D01*
X109532568Y-92932238D02*
X109532568Y-94646523D01*
X109532568Y-94646523D02*
X109627806Y-94837000D01*
X109627806Y-94837000D02*
X109818282Y-94932238D01*
X109818282Y-94932238D02*
X110008758Y-94932238D01*
X110675425Y-94932238D02*
X110675425Y-92932238D01*
X111532568Y-94932238D02*
X111532568Y-93884619D01*
X111532568Y-93884619D02*
X111437330Y-93694142D01*
X111437330Y-93694142D02*
X111246854Y-93598904D01*
X111246854Y-93598904D02*
X110961139Y-93598904D01*
X110961139Y-93598904D02*
X110770663Y-93694142D01*
X110770663Y-93694142D02*
X110675425Y-93789380D01*
X113342092Y-93598904D02*
X113342092Y-94932238D01*
X112484949Y-93598904D02*
X112484949Y-94646523D01*
X112484949Y-94646523D02*
X112580187Y-94837000D01*
X112580187Y-94837000D02*
X112770663Y-94932238D01*
X112770663Y-94932238D02*
X113056378Y-94932238D01*
X113056378Y-94932238D02*
X113246854Y-94837000D01*
X113246854Y-94837000D02*
X113342092Y-94741761D01*
X114294473Y-94932238D02*
X114294473Y-92932238D01*
X114294473Y-93694142D02*
X114484949Y-93598904D01*
X114484949Y-93598904D02*
X114865902Y-93598904D01*
X114865902Y-93598904D02*
X115056378Y-93694142D01*
X115056378Y-93694142D02*
X115151616Y-93789380D01*
X115151616Y-93789380D02*
X115246854Y-93979857D01*
X115246854Y-93979857D02*
X115246854Y-94551285D01*
X115246854Y-94551285D02*
X115151616Y-94741761D01*
X115151616Y-94741761D02*
X115056378Y-94837000D01*
X115056378Y-94837000D02*
X114865902Y-94932238D01*
X114865902Y-94932238D02*
X114484949Y-94932238D01*
X114484949Y-94932238D02*
X114294473Y-94837000D01*
X116103997Y-94741761D02*
X116199235Y-94837000D01*
X116199235Y-94837000D02*
X116103997Y-94932238D01*
X116103997Y-94932238D02*
X116008759Y-94837000D01*
X116008759Y-94837000D02*
X116103997Y-94741761D01*
X116103997Y-94741761D02*
X116103997Y-94932238D01*
X117913521Y-94837000D02*
X117723045Y-94932238D01*
X117723045Y-94932238D02*
X117342092Y-94932238D01*
X117342092Y-94932238D02*
X117151616Y-94837000D01*
X117151616Y-94837000D02*
X117056378Y-94741761D01*
X117056378Y-94741761D02*
X116961140Y-94551285D01*
X116961140Y-94551285D02*
X116961140Y-93979857D01*
X116961140Y-93979857D02*
X117056378Y-93789380D01*
X117056378Y-93789380D02*
X117151616Y-93694142D01*
X117151616Y-93694142D02*
X117342092Y-93598904D01*
X117342092Y-93598904D02*
X117723045Y-93598904D01*
X117723045Y-93598904D02*
X117913521Y-93694142D01*
X119056378Y-94932238D02*
X118865902Y-94837000D01*
X118865902Y-94837000D02*
X118770664Y-94741761D01*
X118770664Y-94741761D02*
X118675426Y-94551285D01*
X118675426Y-94551285D02*
X118675426Y-93979857D01*
X118675426Y-93979857D02*
X118770664Y-93789380D01*
X118770664Y-93789380D02*
X118865902Y-93694142D01*
X118865902Y-93694142D02*
X119056378Y-93598904D01*
X119056378Y-93598904D02*
X119342093Y-93598904D01*
X119342093Y-93598904D02*
X119532569Y-93694142D01*
X119532569Y-93694142D02*
X119627807Y-93789380D01*
X119627807Y-93789380D02*
X119723045Y-93979857D01*
X119723045Y-93979857D02*
X119723045Y-94551285D01*
X119723045Y-94551285D02*
X119627807Y-94741761D01*
X119627807Y-94741761D02*
X119532569Y-94837000D01*
X119532569Y-94837000D02*
X119342093Y-94932238D01*
X119342093Y-94932238D02*
X119056378Y-94932238D01*
X120580188Y-94932238D02*
X120580188Y-93598904D01*
X120580188Y-93789380D02*
X120675426Y-93694142D01*
X120675426Y-93694142D02*
X120865902Y-93598904D01*
X120865902Y-93598904D02*
X121151617Y-93598904D01*
X121151617Y-93598904D02*
X121342093Y-93694142D01*
X121342093Y-93694142D02*
X121437331Y-93884619D01*
X121437331Y-93884619D02*
X121437331Y-94932238D01*
X121437331Y-93884619D02*
X121532569Y-93694142D01*
X121532569Y-93694142D02*
X121723045Y-93598904D01*
X121723045Y-93598904D02*
X122008759Y-93598904D01*
X122008759Y-93598904D02*
X122199236Y-93694142D01*
X122199236Y-93694142D02*
X122294474Y-93884619D01*
X122294474Y-93884619D02*
X122294474Y-94932238D01*
X124675426Y-92837000D02*
X122961141Y-95408428D01*
X126199236Y-93598904D02*
X126199236Y-95217952D01*
X126199236Y-95217952D02*
X126103998Y-95408428D01*
X126103998Y-95408428D02*
X126008760Y-95503666D01*
X126008760Y-95503666D02*
X125818283Y-95598904D01*
X125818283Y-95598904D02*
X125532569Y-95598904D01*
X125532569Y-95598904D02*
X125342093Y-95503666D01*
X126199236Y-94837000D02*
X126008760Y-94932238D01*
X126008760Y-94932238D02*
X125627807Y-94932238D01*
X125627807Y-94932238D02*
X125437331Y-94837000D01*
X125437331Y-94837000D02*
X125342093Y-94741761D01*
X125342093Y-94741761D02*
X125246855Y-94551285D01*
X125246855Y-94551285D02*
X125246855Y-93979857D01*
X125246855Y-93979857D02*
X125342093Y-93789380D01*
X125342093Y-93789380D02*
X125437331Y-93694142D01*
X125437331Y-93694142D02*
X125627807Y-93598904D01*
X125627807Y-93598904D02*
X126008760Y-93598904D01*
X126008760Y-93598904D02*
X126199236Y-93694142D01*
X128008760Y-93598904D02*
X128008760Y-94932238D01*
X127151617Y-93598904D02*
X127151617Y-94646523D01*
X127151617Y-94646523D02*
X127246855Y-94837000D01*
X127246855Y-94837000D02*
X127437331Y-94932238D01*
X127437331Y-94932238D02*
X127723046Y-94932238D01*
X127723046Y-94932238D02*
X127913522Y-94837000D01*
X127913522Y-94837000D02*
X128008760Y-94741761D01*
X129818284Y-93598904D02*
X129818284Y-94932238D01*
X128961141Y-93598904D02*
X128961141Y-94646523D01*
X128961141Y-94646523D02*
X129056379Y-94837000D01*
X129056379Y-94837000D02*
X129246855Y-94932238D01*
X129246855Y-94932238D02*
X129532570Y-94932238D01*
X129532570Y-94932238D02*
X129723046Y-94837000D01*
X129723046Y-94837000D02*
X129818284Y-94741761D01*
X131627808Y-93598904D02*
X131627808Y-94932238D01*
X130770665Y-93598904D02*
X130770665Y-94646523D01*
X130770665Y-94646523D02*
X130865903Y-94837000D01*
X130865903Y-94837000D02*
X131056379Y-94932238D01*
X131056379Y-94932238D02*
X131342094Y-94932238D01*
X131342094Y-94932238D02*
X131532570Y-94837000D01*
X131532570Y-94837000D02*
X131627808Y-94741761D01*
X133437332Y-93598904D02*
X133437332Y-94932238D01*
X132580189Y-93598904D02*
X132580189Y-94646523D01*
X132580189Y-94646523D02*
X132675427Y-94837000D01*
X132675427Y-94837000D02*
X132865903Y-94932238D01*
X132865903Y-94932238D02*
X133151618Y-94932238D01*
X133151618Y-94932238D02*
X133342094Y-94837000D01*
X133342094Y-94837000D02*
X133437332Y-94741761D01*
X135246856Y-93598904D02*
X135246856Y-94932238D01*
X134389713Y-93598904D02*
X134389713Y-94646523D01*
X134389713Y-94646523D02*
X134484951Y-94837000D01*
X134484951Y-94837000D02*
X134675427Y-94932238D01*
X134675427Y-94932238D02*
X134961142Y-94932238D01*
X134961142Y-94932238D02*
X135151618Y-94837000D01*
X135151618Y-94837000D02*
X135246856Y-94741761D01*
X136103999Y-94837000D02*
X136294475Y-94932238D01*
X136294475Y-94932238D02*
X136675427Y-94932238D01*
X136675427Y-94932238D02*
X136865904Y-94837000D01*
X136865904Y-94837000D02*
X136961142Y-94646523D01*
X136961142Y-94646523D02*
X136961142Y-94551285D01*
X136961142Y-94551285D02*
X136865904Y-94360809D01*
X136865904Y-94360809D02*
X136675427Y-94265571D01*
X136675427Y-94265571D02*
X136389713Y-94265571D01*
X136389713Y-94265571D02*
X136199237Y-94170333D01*
X136199237Y-94170333D02*
X136103999Y-93979857D01*
X136103999Y-93979857D02*
X136103999Y-93884619D01*
X136103999Y-93884619D02*
X136199237Y-93694142D01*
X136199237Y-93694142D02*
X136389713Y-93598904D01*
X136389713Y-93598904D02*
X136675427Y-93598904D01*
X136675427Y-93598904D02*
X136865904Y-93694142D01*
D11*
X125823042Y-112077103D02*
X124823042Y-112077103D01*
X125823042Y-112077103D02*
G75*
G02*
X131871574Y-128527436I-102674J-9374894D01*
G01*
X131871574Y-128527436D02*
G75*
G02*
X125823042Y-134838436I-8248402J1851370D01*
G01*
X125823042Y-134838436D02*
X124823042Y-134838436D01*
X124823042Y-134838436D02*
G75*
G02*
X115450000Y-127800000I-1199870J8162370D01*
G01*
X115450000Y-127800000D02*
G75*
G02*
X124823042Y-112077103I6624289J6706268D01*
G01*
X100859417Y-129840173D02*
X99277534Y-131206404D01*
X97892169Y-133127764D01*
X97103053Y-135222703D01*
X96949074Y-137349417D01*
X97469118Y-139366098D01*
X97994053Y-140288863D01*
X111652021Y-130791395D02*
X110166341Y-129309896D01*
X108269636Y-128415505D01*
X106108379Y-128121131D01*
X103829044Y-128439683D01*
X101945072Y-129182664D01*
X100859417Y-129840173D01*
X108786685Y-141240088D02*
X110368564Y-139873853D01*
X111753924Y-137952490D01*
X112543034Y-135857549D01*
X112697008Y-133730836D01*
X112176957Y-131714157D01*
X111652021Y-130791395D01*
X97994074Y-140288893D02*
X99479758Y-141770386D01*
X101376466Y-142664772D01*
X103537725Y-142959141D01*
X105817060Y-142640584D01*
X107701030Y-141897598D01*
X108786685Y-141240088D01*
X123685291Y-152600932D02*
X124481124Y-150479084D01*
X124711154Y-148365824D01*
X124299776Y-146084169D01*
X123196456Y-144196538D01*
X121731935Y-143048235D01*
X114730241Y-156457925D02*
X116818011Y-157030261D01*
X118999045Y-156738359D01*
X121080352Y-155665342D01*
X122638662Y-154186917D01*
X123685291Y-152600932D01*
X112776862Y-146905238D02*
X111981032Y-149027087D01*
X111751008Y-151140347D01*
X112162391Y-153422000D01*
X113265716Y-155309626D01*
X114730241Y-156457925D01*
X121731906Y-143048220D02*
X119644134Y-142475889D01*
X117463099Y-142767798D01*
X115381794Y-143840821D01*
X113823486Y-145319249D01*
X112776862Y-146905238D01*
X139503142Y-148974855D02*
X138396570Y-147081477D01*
X137083244Y-145512163D01*
X135332600Y-144116863D01*
X133201797Y-143254931D01*
X131158195Y-143329403D01*
X130617125Y-143539068D01*
X138187566Y-159308181D02*
X139711703Y-157987776D01*
X140567784Y-155950082D01*
X140748357Y-153801393D01*
X140399427Y-151429570D01*
X139691291Y-149383779D01*
X139503142Y-148974855D01*
X129301546Y-153872421D02*
X130408120Y-155765796D01*
X131721448Y-157335107D01*
X133472094Y-158730402D01*
X135602897Y-159592327D01*
X137646496Y-159517847D01*
X138187566Y-159308181D01*
X130617098Y-143539081D02*
X129092964Y-144859492D01*
X128236889Y-146897191D01*
X128056321Y-149045883D01*
X128405255Y-151417706D01*
X129113395Y-153463497D01*
X129301546Y-153872421D01*
X149780635Y-131329991D02*
X148387976Y-129678078D01*
X146825664Y-128389307D01*
X144836184Y-127361760D01*
X142848190Y-126946307D01*
X140709597Y-127300118D01*
X139902294Y-127746197D01*
X149806140Y-141838271D02*
X151199524Y-140220281D01*
X151809018Y-138026986D01*
X151707945Y-135860790D01*
X151031702Y-133580920D01*
X150029049Y-131697083D01*
X149780635Y-131329991D01*
X139927799Y-138254504D02*
X141320460Y-139906413D01*
X142882774Y-141195180D01*
X144872254Y-142222722D01*
X146860248Y-142638170D01*
X148998838Y-142284352D01*
X149806140Y-141838271D01*
X139902268Y-127746215D02*
X138508888Y-129364210D01*
X137899400Y-131557508D01*
X138000478Y-133723706D01*
X138676727Y-136003576D01*
X139679383Y-137887411D01*
X139927799Y-138254504D01*
D12*
X115053333Y-72234819D02*
X114720000Y-71758628D01*
X114481905Y-72234819D02*
X114481905Y-71234819D01*
X114481905Y-71234819D02*
X114862857Y-71234819D01*
X114862857Y-71234819D02*
X114958095Y-71282438D01*
X114958095Y-71282438D02*
X115005714Y-71330057D01*
X115005714Y-71330057D02*
X115053333Y-71425295D01*
X115053333Y-71425295D02*
X115053333Y-71568152D01*
X115053333Y-71568152D02*
X115005714Y-71663390D01*
X115005714Y-71663390D02*
X114958095Y-71711009D01*
X114958095Y-71711009D02*
X114862857Y-71758628D01*
X114862857Y-71758628D02*
X114481905Y-71758628D01*
X115910476Y-71568152D02*
X115910476Y-72234819D01*
X115672381Y-71187200D02*
X115434286Y-71901485D01*
X115434286Y-71901485D02*
X116053333Y-71901485D01*
X112787200Y-71563332D02*
X112834819Y-71420475D01*
X112834819Y-71420475D02*
X112834819Y-71182380D01*
X112834819Y-71182380D02*
X112787200Y-71087142D01*
X112787200Y-71087142D02*
X112739580Y-71039523D01*
X112739580Y-71039523D02*
X112644342Y-70991904D01*
X112644342Y-70991904D02*
X112549104Y-70991904D01*
X112549104Y-70991904D02*
X112453866Y-71039523D01*
X112453866Y-71039523D02*
X112406247Y-71087142D01*
X112406247Y-71087142D02*
X112358628Y-71182380D01*
X112358628Y-71182380D02*
X112311009Y-71372856D01*
X112311009Y-71372856D02*
X112263390Y-71468094D01*
X112263390Y-71468094D02*
X112215771Y-71515713D01*
X112215771Y-71515713D02*
X112120533Y-71563332D01*
X112120533Y-71563332D02*
X112025295Y-71563332D01*
X112025295Y-71563332D02*
X111930057Y-71515713D01*
X111930057Y-71515713D02*
X111882438Y-71468094D01*
X111882438Y-71468094D02*
X111834819Y-71372856D01*
X111834819Y-71372856D02*
X111834819Y-71134761D01*
X111834819Y-71134761D02*
X111882438Y-70991904D01*
X111834819Y-70658570D02*
X112834819Y-70420475D01*
X112834819Y-70420475D02*
X112120533Y-70229999D01*
X112120533Y-70229999D02*
X112834819Y-70039523D01*
X112834819Y-70039523D02*
X111834819Y-69801428D01*
X112834819Y-68896666D02*
X112834819Y-69468094D01*
X112834819Y-69182380D02*
X111834819Y-69182380D01*
X111834819Y-69182380D02*
X111977676Y-69277618D01*
X111977676Y-69277618D02*
X112072914Y-69372856D01*
X112072914Y-69372856D02*
X112120533Y-69468094D01*
X134774819Y-101238094D02*
X133774819Y-101238094D01*
X133774819Y-101238094D02*
X133774819Y-100999999D01*
X133774819Y-100999999D02*
X133822438Y-100857142D01*
X133822438Y-100857142D02*
X133917676Y-100761904D01*
X133917676Y-100761904D02*
X134012914Y-100714285D01*
X134012914Y-100714285D02*
X134203390Y-100666666D01*
X134203390Y-100666666D02*
X134346247Y-100666666D01*
X134346247Y-100666666D02*
X134536723Y-100714285D01*
X134536723Y-100714285D02*
X134631961Y-100761904D01*
X134631961Y-100761904D02*
X134727200Y-100857142D01*
X134727200Y-100857142D02*
X134774819Y-100999999D01*
X134774819Y-100999999D02*
X134774819Y-101238094D01*
X133774819Y-99809523D02*
X133774819Y-99999999D01*
X133774819Y-99999999D02*
X133822438Y-100095237D01*
X133822438Y-100095237D02*
X133870057Y-100142856D01*
X133870057Y-100142856D02*
X134012914Y-100238094D01*
X134012914Y-100238094D02*
X134203390Y-100285713D01*
X134203390Y-100285713D02*
X134584342Y-100285713D01*
X134584342Y-100285713D02*
X134679580Y-100238094D01*
X134679580Y-100238094D02*
X134727200Y-100190475D01*
X134727200Y-100190475D02*
X134774819Y-100095237D01*
X134774819Y-100095237D02*
X134774819Y-99904761D01*
X134774819Y-99904761D02*
X134727200Y-99809523D01*
X134727200Y-99809523D02*
X134679580Y-99761904D01*
X134679580Y-99761904D02*
X134584342Y-99714285D01*
X134584342Y-99714285D02*
X134346247Y-99714285D01*
X134346247Y-99714285D02*
X134251009Y-99761904D01*
X134251009Y-99761904D02*
X134203390Y-99809523D01*
X134203390Y-99809523D02*
X134155771Y-99904761D01*
X134155771Y-99904761D02*
X134155771Y-100095237D01*
X134155771Y-100095237D02*
X134203390Y-100190475D01*
X134203390Y-100190475D02*
X134251009Y-100238094D01*
X134251009Y-100238094D02*
X134346247Y-100285713D01*
X130674819Y-100238094D02*
X129674819Y-100238094D01*
X129674819Y-100238094D02*
X129674819Y-99999999D01*
X129674819Y-99999999D02*
X129722438Y-99857142D01*
X129722438Y-99857142D02*
X129817676Y-99761904D01*
X129817676Y-99761904D02*
X129912914Y-99714285D01*
X129912914Y-99714285D02*
X130103390Y-99666666D01*
X130103390Y-99666666D02*
X130246247Y-99666666D01*
X130246247Y-99666666D02*
X130436723Y-99714285D01*
X130436723Y-99714285D02*
X130531961Y-99761904D01*
X130531961Y-99761904D02*
X130627200Y-99857142D01*
X130627200Y-99857142D02*
X130674819Y-99999999D01*
X130674819Y-99999999D02*
X130674819Y-100238094D01*
X129674819Y-98761904D02*
X129674819Y-99238094D01*
X129674819Y-99238094D02*
X130151009Y-99285713D01*
X130151009Y-99285713D02*
X130103390Y-99238094D01*
X130103390Y-99238094D02*
X130055771Y-99142856D01*
X130055771Y-99142856D02*
X130055771Y-98904761D01*
X130055771Y-98904761D02*
X130103390Y-98809523D01*
X130103390Y-98809523D02*
X130151009Y-98761904D01*
X130151009Y-98761904D02*
X130246247Y-98714285D01*
X130246247Y-98714285D02*
X130484342Y-98714285D01*
X130484342Y-98714285D02*
X130579580Y-98761904D01*
X130579580Y-98761904D02*
X130627200Y-98809523D01*
X130627200Y-98809523D02*
X130674819Y-98904761D01*
X130674819Y-98904761D02*
X130674819Y-99142856D01*
X130674819Y-99142856D02*
X130627200Y-99238094D01*
X130627200Y-99238094D02*
X130579580Y-99285713D01*
X126574819Y-99635594D02*
X125574819Y-99635594D01*
X125574819Y-99635594D02*
X125574819Y-99397499D01*
X125574819Y-99397499D02*
X125622438Y-99254642D01*
X125622438Y-99254642D02*
X125717676Y-99159404D01*
X125717676Y-99159404D02*
X125812914Y-99111785D01*
X125812914Y-99111785D02*
X126003390Y-99064166D01*
X126003390Y-99064166D02*
X126146247Y-99064166D01*
X126146247Y-99064166D02*
X126336723Y-99111785D01*
X126336723Y-99111785D02*
X126431961Y-99159404D01*
X126431961Y-99159404D02*
X126527200Y-99254642D01*
X126527200Y-99254642D02*
X126574819Y-99397499D01*
X126574819Y-99397499D02*
X126574819Y-99635594D01*
X125908152Y-98207023D02*
X126574819Y-98207023D01*
X125527200Y-98445118D02*
X126241485Y-98683213D01*
X126241485Y-98683213D02*
X126241485Y-98064166D01*
X122474819Y-99635594D02*
X121474819Y-99635594D01*
X121474819Y-99635594D02*
X121474819Y-99397499D01*
X121474819Y-99397499D02*
X121522438Y-99254642D01*
X121522438Y-99254642D02*
X121617676Y-99159404D01*
X121617676Y-99159404D02*
X121712914Y-99111785D01*
X121712914Y-99111785D02*
X121903390Y-99064166D01*
X121903390Y-99064166D02*
X122046247Y-99064166D01*
X122046247Y-99064166D02*
X122236723Y-99111785D01*
X122236723Y-99111785D02*
X122331961Y-99159404D01*
X122331961Y-99159404D02*
X122427200Y-99254642D01*
X122427200Y-99254642D02*
X122474819Y-99397499D01*
X122474819Y-99397499D02*
X122474819Y-99635594D01*
X121474819Y-98730832D02*
X121474819Y-98111785D01*
X121474819Y-98111785D02*
X121855771Y-98445118D01*
X121855771Y-98445118D02*
X121855771Y-98302261D01*
X121855771Y-98302261D02*
X121903390Y-98207023D01*
X121903390Y-98207023D02*
X121951009Y-98159404D01*
X121951009Y-98159404D02*
X122046247Y-98111785D01*
X122046247Y-98111785D02*
X122284342Y-98111785D01*
X122284342Y-98111785D02*
X122379580Y-98159404D01*
X122379580Y-98159404D02*
X122427200Y-98207023D01*
X122427200Y-98207023D02*
X122474819Y-98302261D01*
X122474819Y-98302261D02*
X122474819Y-98587975D01*
X122474819Y-98587975D02*
X122427200Y-98683213D01*
X122427200Y-98683213D02*
X122379580Y-98730832D01*
X118374819Y-100238094D02*
X117374819Y-100238094D01*
X117374819Y-100238094D02*
X117374819Y-99999999D01*
X117374819Y-99999999D02*
X117422438Y-99857142D01*
X117422438Y-99857142D02*
X117517676Y-99761904D01*
X117517676Y-99761904D02*
X117612914Y-99714285D01*
X117612914Y-99714285D02*
X117803390Y-99666666D01*
X117803390Y-99666666D02*
X117946247Y-99666666D01*
X117946247Y-99666666D02*
X118136723Y-99714285D01*
X118136723Y-99714285D02*
X118231961Y-99761904D01*
X118231961Y-99761904D02*
X118327200Y-99857142D01*
X118327200Y-99857142D02*
X118374819Y-99999999D01*
X118374819Y-99999999D02*
X118374819Y-100238094D01*
X117470057Y-99285713D02*
X117422438Y-99238094D01*
X117422438Y-99238094D02*
X117374819Y-99142856D01*
X117374819Y-99142856D02*
X117374819Y-98904761D01*
X117374819Y-98904761D02*
X117422438Y-98809523D01*
X117422438Y-98809523D02*
X117470057Y-98761904D01*
X117470057Y-98761904D02*
X117565295Y-98714285D01*
X117565295Y-98714285D02*
X117660533Y-98714285D01*
X117660533Y-98714285D02*
X117803390Y-98761904D01*
X117803390Y-98761904D02*
X118374819Y-99333332D01*
X118374819Y-99333332D02*
X118374819Y-98714285D01*
X114274819Y-101238094D02*
X113274819Y-101238094D01*
X113274819Y-101238094D02*
X113274819Y-100999999D01*
X113274819Y-100999999D02*
X113322438Y-100857142D01*
X113322438Y-100857142D02*
X113417676Y-100761904D01*
X113417676Y-100761904D02*
X113512914Y-100714285D01*
X113512914Y-100714285D02*
X113703390Y-100666666D01*
X113703390Y-100666666D02*
X113846247Y-100666666D01*
X113846247Y-100666666D02*
X114036723Y-100714285D01*
X114036723Y-100714285D02*
X114131961Y-100761904D01*
X114131961Y-100761904D02*
X114227200Y-100857142D01*
X114227200Y-100857142D02*
X114274819Y-100999999D01*
X114274819Y-100999999D02*
X114274819Y-101238094D01*
X114274819Y-99714285D02*
X114274819Y-100285713D01*
X114274819Y-99999999D02*
X113274819Y-99999999D01*
X113274819Y-99999999D02*
X113417676Y-100095237D01*
X113417676Y-100095237D02*
X113512914Y-100190475D01*
X113512914Y-100190475D02*
X113560533Y-100285713D01*
X120559579Y-79256666D02*
X120607199Y-79304285D01*
X120607199Y-79304285D02*
X120654818Y-79447142D01*
X120654818Y-79447142D02*
X120654818Y-79542380D01*
X120654818Y-79542380D02*
X120607199Y-79685237D01*
X120607199Y-79685237D02*
X120511960Y-79780475D01*
X120511960Y-79780475D02*
X120416722Y-79828094D01*
X120416722Y-79828094D02*
X120226246Y-79875713D01*
X120226246Y-79875713D02*
X120083389Y-79875713D01*
X120083389Y-79875713D02*
X119892913Y-79828094D01*
X119892913Y-79828094D02*
X119797675Y-79780475D01*
X119797675Y-79780475D02*
X119702437Y-79685237D01*
X119702437Y-79685237D02*
X119654818Y-79542380D01*
X119654818Y-79542380D02*
X119654818Y-79447142D01*
X119654818Y-79447142D02*
X119702437Y-79304285D01*
X119702437Y-79304285D02*
X119750056Y-79256666D01*
X119654818Y-78399523D02*
X119654818Y-78589999D01*
X119654818Y-78589999D02*
X119702437Y-78685237D01*
X119702437Y-78685237D02*
X119750056Y-78732856D01*
X119750056Y-78732856D02*
X119892913Y-78828094D01*
X119892913Y-78828094D02*
X120083389Y-78875713D01*
X120083389Y-78875713D02*
X120464341Y-78875713D01*
X120464341Y-78875713D02*
X120559579Y-78828094D01*
X120559579Y-78828094D02*
X120607199Y-78780475D01*
X120607199Y-78780475D02*
X120654818Y-78685237D01*
X120654818Y-78685237D02*
X120654818Y-78494761D01*
X120654818Y-78494761D02*
X120607199Y-78399523D01*
X120607199Y-78399523D02*
X120559579Y-78351904D01*
X120559579Y-78351904D02*
X120464341Y-78304285D01*
X120464341Y-78304285D02*
X120226246Y-78304285D01*
X120226246Y-78304285D02*
X120131008Y-78351904D01*
X120131008Y-78351904D02*
X120083389Y-78399523D01*
X120083389Y-78399523D02*
X120035770Y-78494761D01*
X120035770Y-78494761D02*
X120035770Y-78685237D01*
X120035770Y-78685237D02*
X120083389Y-78780475D01*
X120083389Y-78780475D02*
X120131008Y-78828094D01*
X120131008Y-78828094D02*
X120226246Y-78875713D01*
X135238095Y-64454819D02*
X135238095Y-65264342D01*
X135238095Y-65264342D02*
X135285714Y-65359580D01*
X135285714Y-65359580D02*
X135333333Y-65407200D01*
X135333333Y-65407200D02*
X135428571Y-65454819D01*
X135428571Y-65454819D02*
X135619047Y-65454819D01*
X135619047Y-65454819D02*
X135714285Y-65407200D01*
X135714285Y-65407200D02*
X135761904Y-65359580D01*
X135761904Y-65359580D02*
X135809523Y-65264342D01*
X135809523Y-65264342D02*
X135809523Y-64454819D01*
X136714285Y-64788152D02*
X136714285Y-65454819D01*
X136476190Y-64407200D02*
X136238095Y-65121485D01*
X136238095Y-65121485D02*
X136857142Y-65121485D01*
X131689819Y-88546904D02*
X132499342Y-88546904D01*
X132499342Y-88546904D02*
X132594580Y-88499285D01*
X132594580Y-88499285D02*
X132642200Y-88451666D01*
X132642200Y-88451666D02*
X132689819Y-88356428D01*
X132689819Y-88356428D02*
X132689819Y-88165952D01*
X132689819Y-88165952D02*
X132642200Y-88070714D01*
X132642200Y-88070714D02*
X132594580Y-88023095D01*
X132594580Y-88023095D02*
X132499342Y-87975476D01*
X132499342Y-87975476D02*
X131689819Y-87975476D01*
X131689819Y-87594523D02*
X131689819Y-86975476D01*
X131689819Y-86975476D02*
X132070771Y-87308809D01*
X132070771Y-87308809D02*
X132070771Y-87165952D01*
X132070771Y-87165952D02*
X132118390Y-87070714D01*
X132118390Y-87070714D02*
X132166009Y-87023095D01*
X132166009Y-87023095D02*
X132261247Y-86975476D01*
X132261247Y-86975476D02*
X132499342Y-86975476D01*
X132499342Y-86975476D02*
X132594580Y-87023095D01*
X132594580Y-87023095D02*
X132642200Y-87070714D01*
X132642200Y-87070714D02*
X132689819Y-87165952D01*
X132689819Y-87165952D02*
X132689819Y-87451666D01*
X132689819Y-87451666D02*
X132642200Y-87546904D01*
X132642200Y-87546904D02*
X132594580Y-87594523D01*
X124564819Y-88546904D02*
X125374342Y-88546904D01*
X125374342Y-88546904D02*
X125469580Y-88499285D01*
X125469580Y-88499285D02*
X125517200Y-88451666D01*
X125517200Y-88451666D02*
X125564819Y-88356428D01*
X125564819Y-88356428D02*
X125564819Y-88165952D01*
X125564819Y-88165952D02*
X125517200Y-88070714D01*
X125517200Y-88070714D02*
X125469580Y-88023095D01*
X125469580Y-88023095D02*
X125374342Y-87975476D01*
X125374342Y-87975476D02*
X124564819Y-87975476D01*
X124660057Y-87546904D02*
X124612438Y-87499285D01*
X124612438Y-87499285D02*
X124564819Y-87404047D01*
X124564819Y-87404047D02*
X124564819Y-87165952D01*
X124564819Y-87165952D02*
X124612438Y-87070714D01*
X124612438Y-87070714D02*
X124660057Y-87023095D01*
X124660057Y-87023095D02*
X124755295Y-86975476D01*
X124755295Y-86975476D02*
X124850533Y-86975476D01*
X124850533Y-86975476D02*
X124993390Y-87023095D01*
X124993390Y-87023095D02*
X125564819Y-87594523D01*
X125564819Y-87594523D02*
X125564819Y-86975476D01*
X108587962Y-77745458D02*
X109160382Y-78317878D01*
X109160382Y-78317878D02*
X109261397Y-78351550D01*
X109261397Y-78351550D02*
X109328741Y-78351550D01*
X109328741Y-78351550D02*
X109429756Y-78317878D01*
X109429756Y-78317878D02*
X109564443Y-78183191D01*
X109564443Y-78183191D02*
X109598115Y-78082176D01*
X109598115Y-78082176D02*
X109598115Y-78014832D01*
X109598115Y-78014832D02*
X109564443Y-77913817D01*
X109564443Y-77913817D02*
X108992023Y-77341397D01*
X110406237Y-77341397D02*
X110002176Y-77745458D01*
X110204206Y-77543428D02*
X109497100Y-76836321D01*
X109497100Y-76836321D02*
X109530771Y-77004680D01*
X109530771Y-77004680D02*
X109530771Y-77139367D01*
X109530771Y-77139367D02*
X109497100Y-77240382D01*
X124764819Y-73786666D02*
X124288628Y-74119999D01*
X124764819Y-74358094D02*
X123764819Y-74358094D01*
X123764819Y-74358094D02*
X123764819Y-73977142D01*
X123764819Y-73977142D02*
X123812438Y-73881904D01*
X123812438Y-73881904D02*
X123860057Y-73834285D01*
X123860057Y-73834285D02*
X123955295Y-73786666D01*
X123955295Y-73786666D02*
X124098152Y-73786666D01*
X124098152Y-73786666D02*
X124193390Y-73834285D01*
X124193390Y-73834285D02*
X124241009Y-73881904D01*
X124241009Y-73881904D02*
X124288628Y-73977142D01*
X124288628Y-73977142D02*
X124288628Y-74358094D01*
X123764819Y-73453332D02*
X123764819Y-72834285D01*
X123764819Y-72834285D02*
X124145771Y-73167618D01*
X124145771Y-73167618D02*
X124145771Y-73024761D01*
X124145771Y-73024761D02*
X124193390Y-72929523D01*
X124193390Y-72929523D02*
X124241009Y-72881904D01*
X124241009Y-72881904D02*
X124336247Y-72834285D01*
X124336247Y-72834285D02*
X124574342Y-72834285D01*
X124574342Y-72834285D02*
X124669580Y-72881904D01*
X124669580Y-72881904D02*
X124717200Y-72929523D01*
X124717200Y-72929523D02*
X124764819Y-73024761D01*
X124764819Y-73024761D02*
X124764819Y-73310475D01*
X124764819Y-73310475D02*
X124717200Y-73405713D01*
X124717200Y-73405713D02*
X124669580Y-73453332D01*
X116774819Y-67276666D02*
X116298628Y-67609999D01*
X116774819Y-67848094D02*
X115774819Y-67848094D01*
X115774819Y-67848094D02*
X115774819Y-67467142D01*
X115774819Y-67467142D02*
X115822438Y-67371904D01*
X115822438Y-67371904D02*
X115870057Y-67324285D01*
X115870057Y-67324285D02*
X115965295Y-67276666D01*
X115965295Y-67276666D02*
X116108152Y-67276666D01*
X116108152Y-67276666D02*
X116203390Y-67324285D01*
X116203390Y-67324285D02*
X116251009Y-67371904D01*
X116251009Y-67371904D02*
X116298628Y-67467142D01*
X116298628Y-67467142D02*
X116298628Y-67848094D01*
X115870057Y-66895713D02*
X115822438Y-66848094D01*
X115822438Y-66848094D02*
X115774819Y-66752856D01*
X115774819Y-66752856D02*
X115774819Y-66514761D01*
X115774819Y-66514761D02*
X115822438Y-66419523D01*
X115822438Y-66419523D02*
X115870057Y-66371904D01*
X115870057Y-66371904D02*
X115965295Y-66324285D01*
X115965295Y-66324285D02*
X116060533Y-66324285D01*
X116060533Y-66324285D02*
X116203390Y-66371904D01*
X116203390Y-66371904D02*
X116774819Y-66943332D01*
X116774819Y-66943332D02*
X116774819Y-66324285D01*
X121604819Y-87176666D02*
X121128628Y-87509999D01*
X121604819Y-87748094D02*
X120604819Y-87748094D01*
X120604819Y-87748094D02*
X120604819Y-87367142D01*
X120604819Y-87367142D02*
X120652438Y-87271904D01*
X120652438Y-87271904D02*
X120700057Y-87224285D01*
X120700057Y-87224285D02*
X120795295Y-87176666D01*
X120795295Y-87176666D02*
X120938152Y-87176666D01*
X120938152Y-87176666D02*
X121033390Y-87224285D01*
X121033390Y-87224285D02*
X121081009Y-87271904D01*
X121081009Y-87271904D02*
X121128628Y-87367142D01*
X121128628Y-87367142D02*
X121128628Y-87748094D01*
X121604819Y-86224285D02*
X121604819Y-86795713D01*
X121604819Y-86509999D02*
X120604819Y-86509999D01*
X120604819Y-86509999D02*
X120747676Y-86605237D01*
X120747676Y-86605237D02*
X120842914Y-86700475D01*
X120842914Y-86700475D02*
X120890533Y-86795713D01*
X122463333Y-72355180D02*
X122463333Y-71640895D01*
X122463333Y-71640895D02*
X122510952Y-71498038D01*
X122510952Y-71498038D02*
X122606190Y-71402800D01*
X122606190Y-71402800D02*
X122749047Y-71355180D01*
X122749047Y-71355180D02*
X122844285Y-71355180D01*
X121463333Y-71355180D02*
X122034761Y-71355180D01*
X121749047Y-71355180D02*
X121749047Y-72355180D01*
X121749047Y-72355180D02*
X121844285Y-72212323D01*
X121844285Y-72212323D02*
X121939523Y-72117085D01*
X121939523Y-72117085D02*
X122034761Y-72069466D01*
X104219580Y-84256666D02*
X104267200Y-84304285D01*
X104267200Y-84304285D02*
X104314819Y-84447142D01*
X104314819Y-84447142D02*
X104314819Y-84542380D01*
X104314819Y-84542380D02*
X104267200Y-84685237D01*
X104267200Y-84685237D02*
X104171961Y-84780475D01*
X104171961Y-84780475D02*
X104076723Y-84828094D01*
X104076723Y-84828094D02*
X103886247Y-84875713D01*
X103886247Y-84875713D02*
X103743390Y-84875713D01*
X103743390Y-84875713D02*
X103552914Y-84828094D01*
X103552914Y-84828094D02*
X103457676Y-84780475D01*
X103457676Y-84780475D02*
X103362438Y-84685237D01*
X103362438Y-84685237D02*
X103314819Y-84542380D01*
X103314819Y-84542380D02*
X103314819Y-84447142D01*
X103314819Y-84447142D02*
X103362438Y-84304285D01*
X103362438Y-84304285D02*
X103410057Y-84256666D01*
X103314819Y-83351904D02*
X103314819Y-83828094D01*
X103314819Y-83828094D02*
X103791009Y-83875713D01*
X103791009Y-83875713D02*
X103743390Y-83828094D01*
X103743390Y-83828094D02*
X103695771Y-83732856D01*
X103695771Y-83732856D02*
X103695771Y-83494761D01*
X103695771Y-83494761D02*
X103743390Y-83399523D01*
X103743390Y-83399523D02*
X103791009Y-83351904D01*
X103791009Y-83351904D02*
X103886247Y-83304285D01*
X103886247Y-83304285D02*
X104124342Y-83304285D01*
X104124342Y-83304285D02*
X104219580Y-83351904D01*
X104219580Y-83351904D02*
X104267200Y-83399523D01*
X104267200Y-83399523D02*
X104314819Y-83494761D01*
X104314819Y-83494761D02*
X104314819Y-83732856D01*
X104314819Y-83732856D02*
X104267200Y-83828094D01*
X104267200Y-83828094D02*
X104219580Y-83875713D01*
X128278333Y-79509580D02*
X128230714Y-79557200D01*
X128230714Y-79557200D02*
X128087857Y-79604819D01*
X128087857Y-79604819D02*
X127992619Y-79604819D01*
X127992619Y-79604819D02*
X127849762Y-79557200D01*
X127849762Y-79557200D02*
X127754524Y-79461961D01*
X127754524Y-79461961D02*
X127706905Y-79366723D01*
X127706905Y-79366723D02*
X127659286Y-79176247D01*
X127659286Y-79176247D02*
X127659286Y-79033390D01*
X127659286Y-79033390D02*
X127706905Y-78842914D01*
X127706905Y-78842914D02*
X127754524Y-78747676D01*
X127754524Y-78747676D02*
X127849762Y-78652438D01*
X127849762Y-78652438D02*
X127992619Y-78604819D01*
X127992619Y-78604819D02*
X128087857Y-78604819D01*
X128087857Y-78604819D02*
X128230714Y-78652438D01*
X128230714Y-78652438D02*
X128278333Y-78700057D01*
X129135476Y-78938152D02*
X129135476Y-79604819D01*
X128897381Y-78557200D02*
X128659286Y-79271485D01*
X128659286Y-79271485D02*
X129278333Y-79271485D01*
X135333333Y-79509580D02*
X135285714Y-79557200D01*
X135285714Y-79557200D02*
X135142857Y-79604819D01*
X135142857Y-79604819D02*
X135047619Y-79604819D01*
X135047619Y-79604819D02*
X134904762Y-79557200D01*
X134904762Y-79557200D02*
X134809524Y-79461961D01*
X134809524Y-79461961D02*
X134761905Y-79366723D01*
X134761905Y-79366723D02*
X134714286Y-79176247D01*
X134714286Y-79176247D02*
X134714286Y-79033390D01*
X134714286Y-79033390D02*
X134761905Y-78842914D01*
X134761905Y-78842914D02*
X134809524Y-78747676D01*
X134809524Y-78747676D02*
X134904762Y-78652438D01*
X134904762Y-78652438D02*
X135047619Y-78604819D01*
X135047619Y-78604819D02*
X135142857Y-78604819D01*
X135142857Y-78604819D02*
X135285714Y-78652438D01*
X135285714Y-78652438D02*
X135333333Y-78700057D01*
X135666667Y-78604819D02*
X136285714Y-78604819D01*
X136285714Y-78604819D02*
X135952381Y-78985771D01*
X135952381Y-78985771D02*
X136095238Y-78985771D01*
X136095238Y-78985771D02*
X136190476Y-79033390D01*
X136190476Y-79033390D02*
X136238095Y-79081009D01*
X136238095Y-79081009D02*
X136285714Y-79176247D01*
X136285714Y-79176247D02*
X136285714Y-79414342D01*
X136285714Y-79414342D02*
X136238095Y-79509580D01*
X136238095Y-79509580D02*
X136190476Y-79557200D01*
X136190476Y-79557200D02*
X136095238Y-79604819D01*
X136095238Y-79604819D02*
X135809524Y-79604819D01*
X135809524Y-79604819D02*
X135714286Y-79557200D01*
X135714286Y-79557200D02*
X135666667Y-79509580D01*
X128859580Y-73666666D02*
X128907200Y-73714285D01*
X128907200Y-73714285D02*
X128954819Y-73857142D01*
X128954819Y-73857142D02*
X128954819Y-73952380D01*
X128954819Y-73952380D02*
X128907200Y-74095237D01*
X128907200Y-74095237D02*
X128811961Y-74190475D01*
X128811961Y-74190475D02*
X128716723Y-74238094D01*
X128716723Y-74238094D02*
X128526247Y-74285713D01*
X128526247Y-74285713D02*
X128383390Y-74285713D01*
X128383390Y-74285713D02*
X128192914Y-74238094D01*
X128192914Y-74238094D02*
X128097676Y-74190475D01*
X128097676Y-74190475D02*
X128002438Y-74095237D01*
X128002438Y-74095237D02*
X127954819Y-73952380D01*
X127954819Y-73952380D02*
X127954819Y-73857142D01*
X127954819Y-73857142D02*
X128002438Y-73714285D01*
X128002438Y-73714285D02*
X128050057Y-73666666D01*
X128050057Y-73285713D02*
X128002438Y-73238094D01*
X128002438Y-73238094D02*
X127954819Y-73142856D01*
X127954819Y-73142856D02*
X127954819Y-72904761D01*
X127954819Y-72904761D02*
X128002438Y-72809523D01*
X128002438Y-72809523D02*
X128050057Y-72761904D01*
X128050057Y-72761904D02*
X128145295Y-72714285D01*
X128145295Y-72714285D02*
X128240533Y-72714285D01*
X128240533Y-72714285D02*
X128383390Y-72761904D01*
X128383390Y-72761904D02*
X128954819Y-73333332D01*
X128954819Y-73333332D02*
X128954819Y-72714285D01*
X132389580Y-67316666D02*
X132437200Y-67364285D01*
X132437200Y-67364285D02*
X132484819Y-67507142D01*
X132484819Y-67507142D02*
X132484819Y-67602380D01*
X132484819Y-67602380D02*
X132437200Y-67745237D01*
X132437200Y-67745237D02*
X132341961Y-67840475D01*
X132341961Y-67840475D02*
X132246723Y-67888094D01*
X132246723Y-67888094D02*
X132056247Y-67935713D01*
X132056247Y-67935713D02*
X131913390Y-67935713D01*
X131913390Y-67935713D02*
X131722914Y-67888094D01*
X131722914Y-67888094D02*
X131627676Y-67840475D01*
X131627676Y-67840475D02*
X131532438Y-67745237D01*
X131532438Y-67745237D02*
X131484819Y-67602380D01*
X131484819Y-67602380D02*
X131484819Y-67507142D01*
X131484819Y-67507142D02*
X131532438Y-67364285D01*
X131532438Y-67364285D02*
X131580057Y-67316666D01*
X132484819Y-66364285D02*
X132484819Y-66935713D01*
X132484819Y-66649999D02*
X131484819Y-66649999D01*
X131484819Y-66649999D02*
X131627676Y-66745237D01*
X131627676Y-66745237D02*
X131722914Y-66840475D01*
X131722914Y-66840475D02*
X131770533Y-66935713D01*
D13*
%TO.C,R4*%
X114492936Y-72690000D02*
X115947064Y-72690000D01*
X114492936Y-74510000D02*
X115947064Y-74510000D01*
%TO.C,SW1*%
X108880000Y-66730000D02*
X107380000Y-66730000D01*
X104880000Y-67980000D02*
X104880000Y-72480000D01*
X111380000Y-72480000D02*
X111380000Y-67980000D01*
X107380000Y-73730000D02*
X108880000Y-73730000D01*
%TO.C,D6*%
X133635000Y-102100000D02*
X133635000Y-98040000D01*
X131365000Y-98040000D02*
X131365000Y-102100000D01*
X133635000Y-98040000D02*
X131365000Y-98040000D01*
%TO.C,D5*%
X129535000Y-97040000D02*
X127265000Y-97040000D01*
X127265000Y-97040000D02*
X127265000Y-101100000D01*
X129535000Y-101100000D02*
X129535000Y-97040000D01*
%TO.C,D4*%
X125435000Y-96437500D02*
X123165000Y-96437500D01*
X123165000Y-96437500D02*
X123165000Y-100497500D01*
X125435000Y-100497500D02*
X125435000Y-96437500D01*
%TO.C,D3*%
X121335000Y-96437500D02*
X119065000Y-96437500D01*
X119065000Y-96437500D02*
X119065000Y-100497500D01*
X121335000Y-100497500D02*
X121335000Y-96437500D01*
%TO.C,D2*%
X117235000Y-97040000D02*
X114965000Y-97040000D01*
X114965000Y-97040000D02*
X114965000Y-101100000D01*
X117235000Y-101100000D02*
X117235000Y-97040000D01*
%TO.C,D1*%
X113135000Y-98040000D02*
X110865000Y-98040000D01*
X110865000Y-98040000D02*
X110865000Y-102100000D01*
X113135000Y-102100000D02*
X113135000Y-98040000D01*
%TO.C,C6*%
X121140000Y-79801252D02*
X121140000Y-78378748D01*
X122960000Y-79801252D02*
X122960000Y-78378748D01*
%TO.C,U4*%
X132487500Y-72420000D02*
X132487500Y-68660000D01*
X139307500Y-72420000D02*
X139307500Y-68660000D01*
X132487500Y-68660000D02*
X133747500Y-68660000D01*
X139307500Y-68660000D02*
X138047500Y-68660000D01*
X132587500Y-73700000D02*
X132257500Y-73940000D01*
X132257500Y-73460000D01*
X132587500Y-73700000D01*
G36*
X132587500Y-73700000D02*
G01*
X132257500Y-73940000D01*
X132257500Y-73460000D01*
X132587500Y-73700000D01*
G37*
%TO.C,U3*%
X133075000Y-87785000D02*
X133075000Y-89735000D01*
X133075000Y-87785000D02*
X133075000Y-85835000D01*
X138195000Y-87785000D02*
X138195000Y-89735000D01*
X138195000Y-87785000D02*
X138195000Y-85835000D01*
X133170000Y-90485000D02*
X132840000Y-90725000D01*
X132840000Y-90245000D01*
X133170000Y-90485000D01*
G36*
X133170000Y-90485000D02*
G01*
X132840000Y-90725000D01*
X132840000Y-90245000D01*
X133170000Y-90485000D01*
G37*
%TO.C,U2*%
X125950000Y-87785000D02*
X125950000Y-89735000D01*
X125950000Y-87785000D02*
X125950000Y-85835000D01*
X131070000Y-87785000D02*
X131070000Y-89735000D01*
X131070000Y-87785000D02*
X131070000Y-85835000D01*
X126045000Y-90485000D02*
X125715000Y-90725000D01*
X125715000Y-90245000D01*
X126045000Y-90485000D01*
G36*
X126045000Y-90485000D02*
G01*
X125715000Y-90725000D01*
X125715000Y-90245000D01*
X126045000Y-90485000D01*
G37*
%TO.C,U1*%
X108564689Y-81750000D02*
X108776821Y-81962132D01*
X113670000Y-86855311D02*
X113457868Y-86643179D01*
X108776821Y-81537868D02*
X108564689Y-81750000D01*
X113882132Y-86643179D02*
X113670000Y-86855311D01*
X113457868Y-76856821D02*
X113670000Y-76644689D01*
X118563179Y-81962132D02*
X118775311Y-81750000D01*
X113670000Y-76644689D02*
X113882132Y-76856821D01*
X118775311Y-81750000D02*
X118563179Y-81537868D01*
X108350789Y-82388164D02*
X107778033Y-82296240D01*
X108258865Y-81815407D01*
X108350789Y-82388164D01*
G36*
X108350789Y-82388164D02*
G01*
X107778033Y-82296240D01*
X108258865Y-81815407D01*
X108350789Y-82388164D01*
G37*
%TO.C,R3*%
X127040000Y-74347064D02*
X127040000Y-72892936D01*
X125220000Y-74347064D02*
X125220000Y-72892936D01*
%TO.C,R2*%
X113590000Y-66382936D02*
X113590000Y-67837064D01*
X115410000Y-66382936D02*
X115410000Y-67837064D01*
%TO.C,R1*%
X123970000Y-86242936D02*
X123970000Y-87697064D01*
X122150000Y-86242936D02*
X122150000Y-87697064D01*
%TO.C,J1*%
X126800000Y-66410000D02*
X126800000Y-68110000D01*
X117460000Y-66410000D02*
X117460000Y-68110000D01*
%TO.C,C5*%
X106610000Y-83298748D02*
X106610000Y-84721252D01*
X104790000Y-83298748D02*
X104790000Y-84721252D01*
%TO.C,C4*%
X127733748Y-80090000D02*
X129156252Y-80090000D01*
X127733748Y-81910000D02*
X129156252Y-81910000D01*
%TO.C,C3*%
X134788748Y-80090000D02*
X136211252Y-80090000D01*
X134788748Y-81910000D02*
X136211252Y-81910000D01*
%TO.C,C2*%
X131080000Y-72938748D02*
X131080000Y-74361252D01*
X129260000Y-72938748D02*
X129260000Y-74361252D01*
%TO.C,C1*%
X131090000Y-66438748D02*
X131090000Y-67861252D01*
X129270000Y-66438748D02*
X129270000Y-67861252D01*
%TD*%
%LPC*%
D14*
%TO.C,R4*%
X113670000Y-73600000D03*
X116770000Y-73600000D03*
%TD*%
D15*
%TO.C,SW1*%
X110380000Y-66980000D03*
X110380000Y-73480000D03*
X105880000Y-66980000D03*
X105880000Y-73480000D03*
%TD*%
D16*
%TO.C,D6*%
X132500000Y-101987500D03*
X132500000Y-99012500D03*
%TD*%
%TO.C,D5*%
X128400000Y-98012500D03*
X128400000Y-100987500D03*
%TD*%
%TO.C,D4*%
X124300000Y-97410000D03*
X124300000Y-100385000D03*
%TD*%
%TO.C,D3*%
X120200000Y-97410000D03*
X120200000Y-100385000D03*
%TD*%
%TO.C,D2*%
X116100000Y-98012500D03*
X116100000Y-100987500D03*
%TD*%
%TO.C,D1*%
X112000000Y-99012500D03*
X112000000Y-101987500D03*
%TD*%
D17*
%TO.C,C6*%
X122050000Y-80652500D03*
X122050000Y-77527500D03*
%TD*%
D18*
%TO.C,U4*%
X133597500Y-73720000D03*
X135897500Y-73720000D03*
D19*
X135897500Y-67420000D03*
D18*
X138197500Y-73720000D03*
%TD*%
D20*
%TO.C,U3*%
X133730000Y-90360000D03*
X135000000Y-90360000D03*
X136270000Y-90360000D03*
X137540000Y-90360000D03*
X137540000Y-85210000D03*
X136270000Y-85210000D03*
X135000000Y-85210000D03*
X133730000Y-85210000D03*
%TD*%
%TO.C,U2*%
X126605000Y-90360000D03*
X127875000Y-90360000D03*
X129145000Y-90360000D03*
X130415000Y-90360000D03*
X130415000Y-85210000D03*
X129145000Y-85210000D03*
X127875000Y-85210000D03*
X126605000Y-85210000D03*
%TD*%
D21*
%TO.C,U1*%
X108737930Y-82722272D03*
X109303616Y-83287957D03*
X109869301Y-83853643D03*
X110434986Y-84419328D03*
X111000672Y-84985014D03*
X111566357Y-85550699D03*
X112132043Y-86116384D03*
X112697728Y-86682070D03*
D22*
X114642272Y-86682070D03*
X115207957Y-86116384D03*
X115773643Y-85550699D03*
X116339328Y-84985014D03*
X116905014Y-84419328D03*
X117470699Y-83853643D03*
X118036384Y-83287957D03*
X118602070Y-82722272D03*
D21*
X118602070Y-80777728D03*
X118036384Y-80212043D03*
X117470699Y-79646357D03*
X116905014Y-79080672D03*
X116339328Y-78514986D03*
X115773643Y-77949301D03*
X115207957Y-77383616D03*
X114642272Y-76817930D03*
D22*
X112697728Y-76817930D03*
X112132043Y-77383616D03*
X111566357Y-77949301D03*
X111000672Y-78514986D03*
X110434986Y-79080672D03*
X109869301Y-79646357D03*
X109303616Y-80212043D03*
X108737930Y-80777728D03*
%TD*%
D23*
%TO.C,R3*%
X126130000Y-72070000D03*
X126130000Y-75170000D03*
%TD*%
D24*
%TO.C,R2*%
X114500000Y-68660000D03*
X114500000Y-65560000D03*
%TD*%
%TO.C,R1*%
X123060000Y-85420000D03*
X123060000Y-88520000D03*
%TD*%
D25*
%TO.C,J1*%
X125020000Y-68915000D03*
X119240000Y-68915000D03*
D26*
X125330000Y-69990000D03*
X124530000Y-69990000D03*
D27*
X123380000Y-69990000D03*
X122380000Y-69990000D03*
X121880000Y-69990000D03*
X120880000Y-69990000D03*
D26*
X119730000Y-69990000D03*
X118930000Y-69990000D03*
X118930000Y-69990000D03*
X119730000Y-69990000D03*
D27*
X120380000Y-69990000D03*
X121380000Y-69990000D03*
X122880000Y-69990000D03*
X123880000Y-69990000D03*
D26*
X124530000Y-69990000D03*
X125330000Y-69990000D03*
D28*
X126450000Y-69415000D03*
D29*
X126450000Y-65235000D03*
D28*
X117810000Y-69415000D03*
D29*
X117810000Y-65235000D03*
%TD*%
D30*
%TO.C,C5*%
X105700000Y-82447500D03*
X105700000Y-85572500D03*
%TD*%
D31*
%TO.C,C4*%
X126882500Y-81000000D03*
X130007500Y-81000000D03*
%TD*%
%TO.C,C3*%
X133937500Y-81000000D03*
X137062500Y-81000000D03*
%TD*%
D30*
%TO.C,C2*%
X130170000Y-72087500D03*
X130170000Y-75212500D03*
%TD*%
%TO.C,C1*%
X130180000Y-65587500D03*
X130180000Y-68712500D03*
%TD*%
%LPD*%
M02*
