M48
; DRILL file {KiCad 8.0.4+1} date 2024-09-15T14:39:29+0200
; FORMAT={-:-/ absolute / inch / decimal}
; #@! TF.CreationDate,2024-09-15T14:39:29+02:00
; #@! TF.GenerationSoftware,Kicad,Pcbnew,8.0.4+1
; #@! TF.FileFunction,Plated,1,2,PTH
FMAT,2
INCH
; #@! TA.AperFunction,Plated,PTH,ViaDrill
T1C0.0118
; #@! TA.AperFunction,Plated,PTH,ComponentDrill
T2C0.0236
; #@! TA.AperFunction,Plated,PTH,ComponentDrill
T3C0.0433
%
G90
G05
T1
X4.0945Y-3.9961
X4.1449Y-2.9984
X4.2539Y-3.4138
X4.4087Y-3.7646
X4.4516Y-3.524
X4.5276Y-3.7795
X4.5949Y-3.0016
X4.6327Y-3.037
X4.6457Y-3.8189
X4.6508Y-3.385
X4.6571Y-3.6079
X4.6831Y-2.8551
X4.6992Y-3.0839
X4.7575Y-3.3028
X4.7646Y-3.4843
X4.8016Y-2.811
X4.8169Y-2.7047
X4.876Y-3.2768
X5.0197Y-3.7795
X5.0646Y-2.7795
X5.0984Y-3.6614
X5.1972Y-3.2717
X5.2039Y-3.0024
X5.2563Y-3.0992
X5.2724Y-2.7413
X5.3346Y-3.7992
X5.398Y-2.9984
X5.4276Y-3.6839
X5.4591Y-3.0701
X5.4591Y-3.2839
X5.4724Y-3.9567
T3
X4.1685Y-2.637
X4.1685Y-2.8929
X4.3457Y-2.637
X4.3457Y-2.8929
T2
G00X4.6382Y-2.5841
M15
G01X4.6382Y-2.5526
M16
G05
G00X4.6382Y-2.7545
M15
G01X4.6382Y-2.7112
M16
G05
G00X4.9783Y-2.5841
M15
G01X4.9783Y-2.5526
M16
G05
G00X4.9783Y-2.7545
M15
G01X4.9783Y-2.7112
M16
G05
M30
